<mxfile host="app.diagrams.net" modified="2024-03-23T16:08:51.652Z" agent="Mozilla/5.0 (Windows NT 10.0; Win64; x64; rv:124.0) Gecko/20100101 Firefox/124.0" etag="9A5w2FIiZww2-UVFpEJh" version="24.0.7" type="github">
  <diagram name="Page-1" id="M4nyXgz_OTvfZ6UV233X">
    <mxGraphModel dx="4780" dy="2607" grid="1" gridSize="10" guides="1" tooltips="1" connect="1" arrows="1" fold="1" page="1" pageScale="1" pageWidth="827" pageHeight="1169" math="0" shadow="0">
      <root>
        <mxCell id="0" />
        <mxCell id="1" parent="0" />
        <mxCell id="HMEKJtXv6nUC9A5PgHyP-1" value="&lt;div&gt;Cl_BDD&lt;/div&gt;" style="swimlane;fontStyle=1;align=center;verticalAlign=top;childLayout=stackLayout;horizontal=1;startSize=26;horizontalStack=0;resizeParent=1;resizeParentMax=0;resizeLast=0;collapsible=1;marginBottom=0;whiteSpace=wrap;html=1;fillColor=#d5e8d4;strokeColor=#82b366;" parent="1" vertex="1">
          <mxGeometry x="60" y="165" width="230" height="200" as="geometry" />
        </mxCell>
        <mxCell id="HMEKJtXv6nUC9A5PgHyP-2" value="+&lt;span style=&quot;white-space: pre;&quot;&gt;&#x9;&lt;/span&gt;MaConnexion: SQLiteConnection" style="text;strokeColor=none;fillColor=none;align=left;verticalAlign=top;spacingLeft=4;spacingRight=4;overflow=hidden;rotatable=0;points=[[0,0.5],[1,0.5]];portConstraint=eastwest;whiteSpace=wrap;html=1;" parent="HMEKJtXv6nUC9A5PgHyP-1" vertex="1">
          <mxGeometry y="26" width="230" height="24" as="geometry" />
        </mxCell>
        <mxCell id="HMEKJtXv6nUC9A5PgHyP-3" value="" style="line;strokeWidth=1;fillColor=none;align=left;verticalAlign=middle;spacingTop=-1;spacingLeft=3;spacingRight=3;rotatable=0;labelPosition=right;points=[];portConstraint=eastwest;strokeColor=inherit;" parent="HMEKJtXv6nUC9A5PgHyP-1" vertex="1">
          <mxGeometry y="50" width="230" height="8" as="geometry" />
        </mxCell>
        <mxCell id="HMEKJtXv6nUC9A5PgHyP-4" value="&lt;div&gt;+&lt;span style=&quot;white-space: pre;&quot;&gt;&#x9;&lt;/span&gt;Cl_BDD() : void&lt;/div&gt;" style="text;strokeColor=#82b366;fillColor=#d5e8d4;align=left;verticalAlign=top;spacingLeft=4;spacingRight=4;overflow=hidden;rotatable=0;points=[[0,0.5],[1,0.5]];portConstraint=eastwest;whiteSpace=wrap;html=1;" parent="HMEKJtXv6nUC9A5PgHyP-1" vertex="1">
          <mxGeometry y="58" width="230" height="22" as="geometry" />
        </mxCell>
        <mxCell id="ep3cFhaID-RFhSAYfXqb-8" value="+&lt;span style=&quot;white-space: pre;&quot;&gt;&#x9;&lt;/span&gt;abstract Insert() : void" style="text;strokeColor=#d79b00;fillColor=#ffe6cc;align=left;verticalAlign=top;spacingLeft=4;spacingRight=4;overflow=hidden;rotatable=0;points=[[0,0.5],[1,0.5]];portConstraint=eastwest;whiteSpace=wrap;html=1;" parent="HMEKJtXv6nUC9A5PgHyP-1" vertex="1">
          <mxGeometry y="80" width="230" height="24" as="geometry" />
        </mxCell>
        <mxCell id="ep3cFhaID-RFhSAYfXqb-9" value="+&lt;span style=&quot;white-space: pre;&quot;&gt;&#x9;&lt;/span&gt;abstract Update() : void" style="text;strokeColor=#d79b00;fillColor=#ffe6cc;align=left;verticalAlign=top;spacingLeft=4;spacingRight=4;overflow=hidden;rotatable=0;points=[[0,0.5],[1,0.5]];portConstraint=eastwest;whiteSpace=wrap;html=1;" parent="HMEKJtXv6nUC9A5PgHyP-1" vertex="1">
          <mxGeometry y="104" width="230" height="24" as="geometry" />
        </mxCell>
        <mxCell id="ep3cFhaID-RFhSAYfXqb-10" value="+&lt;span style=&quot;white-space: pre;&quot;&gt;&#x9;&lt;/span&gt;abstract Delete() : void" style="text;strokeColor=#d79b00;fillColor=#ffe6cc;align=left;verticalAlign=top;spacingLeft=4;spacingRight=4;overflow=hidden;rotatable=0;points=[[0,0.5],[1,0.5]];portConstraint=eastwest;whiteSpace=wrap;html=1;" parent="HMEKJtXv6nUC9A5PgHyP-1" vertex="1">
          <mxGeometry y="128" width="230" height="24" as="geometry" />
        </mxCell>
        <mxCell id="ep3cFhaID-RFhSAYfXqb-11" value="+ &lt;span style=&quot;white-space: pre;&quot;&gt;&#x9;&lt;/span&gt;&lt;span style=&quot;white-space: pre;&quot;&gt;&lt;/span&gt;abstract ToString() : string" style="text;strokeColor=#d79b00;fillColor=#ffe6cc;align=left;verticalAlign=top;spacingLeft=4;spacingRight=4;overflow=hidden;rotatable=0;points=[[0,0.5],[1,0.5]];portConstraint=eastwest;whiteSpace=wrap;html=1;" parent="HMEKJtXv6nUC9A5PgHyP-1" vertex="1">
          <mxGeometry y="152" width="230" height="24" as="geometry" />
        </mxCell>
        <mxCell id="ep3cFhaID-RFhSAYfXqb-12" value="+ &lt;span style=&quot;white-space: pre;&quot;&gt;&#x9;&lt;/span&gt;&lt;span style=&quot;white-space: pre;&quot;&gt;&lt;/span&gt;abstract ValeurCorrecte() : bool" style="text;strokeColor=#d79b00;fillColor=#ffe6cc;align=left;verticalAlign=top;spacingLeft=4;spacingRight=4;overflow=hidden;rotatable=0;points=[[0,0.5],[1,0.5]];portConstraint=eastwest;whiteSpace=wrap;html=1;" parent="HMEKJtXv6nUC9A5PgHyP-1" vertex="1">
          <mxGeometry y="176" width="230" height="24" as="geometry" />
        </mxCell>
        <mxCell id="ep3cFhaID-RFhSAYfXqb-47" value="Cl_Utilisateur" style="swimlane;fontStyle=1;align=center;verticalAlign=top;childLayout=stackLayout;horizontal=1;startSize=26;horizontalStack=0;resizeParent=1;resizeParentMax=0;resizeLast=0;collapsible=1;marginBottom=0;whiteSpace=wrap;html=1;fillColor=#d5e8d4;strokeColor=#82b366;" parent="1" vertex="1">
          <mxGeometry x="460" y="165" width="270" height="288" as="geometry" />
        </mxCell>
        <mxCell id="ep3cFhaID-RFhSAYfXqb-49" value="&lt;div&gt;-&lt;span style=&quot;white-space: pre;&quot;&gt;&#x9;NomUtilisateur&lt;/span&gt;: string&lt;/div&gt;" style="text;strokeColor=none;fillColor=none;align=left;verticalAlign=top;spacingLeft=4;spacingRight=4;overflow=hidden;rotatable=0;points=[[0,0.5],[1,0.5]];portConstraint=eastwest;whiteSpace=wrap;html=1;" parent="ep3cFhaID-RFhSAYfXqb-47" vertex="1">
          <mxGeometry y="26" width="270" height="24" as="geometry" />
        </mxCell>
        <mxCell id="ep3cFhaID-RFhSAYfXqb-48" value="&lt;div&gt;-&lt;span style=&quot;white-space: pre;&quot;&gt;&#x9;MotDePasse&lt;/span&gt;: string&lt;br&gt;&lt;/div&gt;&lt;div&gt;&lt;br&gt;&lt;/div&gt;" style="text;strokeColor=none;fillColor=none;align=left;verticalAlign=top;spacingLeft=4;spacingRight=4;overflow=hidden;rotatable=0;points=[[0,0.5],[1,0.5]];portConstraint=eastwest;whiteSpace=wrap;html=1;" parent="ep3cFhaID-RFhSAYfXqb-47" vertex="1">
          <mxGeometry y="50" width="270" height="24" as="geometry" />
        </mxCell>
        <mxCell id="ep3cFhaID-RFhSAYfXqb-50" value="" style="line;strokeWidth=1;fillColor=none;align=left;verticalAlign=middle;spacingTop=-1;spacingLeft=3;spacingRight=3;rotatable=0;labelPosition=right;points=[];portConstraint=eastwest;strokeColor=inherit;" parent="ep3cFhaID-RFhSAYfXqb-47" vertex="1">
          <mxGeometry y="74" width="270" height="8" as="geometry" />
        </mxCell>
        <mxCell id="ep3cFhaID-RFhSAYfXqb-51" value="&lt;div&gt;+&lt;span style=&quot;white-space: pre;&quot;&gt;&#x9;Cl_Utilisateur(string NomUtilisateurRecu, &lt;/span&gt;&lt;/div&gt;&lt;div&gt;&lt;span style=&quot;white-space: pre;&quot;&gt;string MotDePasseRecu) : void&lt;/span&gt;&lt;/div&gt;" style="text;strokeColor=#82b366;fillColor=#d5e8d4;align=left;verticalAlign=top;spacingLeft=4;spacingRight=4;overflow=hidden;rotatable=0;points=[[0,0.5],[1,0.5]];portConstraint=eastwest;whiteSpace=wrap;html=1;" parent="ep3cFhaID-RFhSAYfXqb-47" vertex="1">
          <mxGeometry y="82" width="270" height="38" as="geometry" />
        </mxCell>
        <mxCell id="ep3cFhaID-RFhSAYfXqb-59" value="+&lt;span style=&quot;white-space: pre;&quot;&gt;&#x9;HachSHA256&lt;/span&gt;(chaine string) : string" style="text;strokeColor=#6c8ebf;fillColor=#dae8fc;align=left;verticalAlign=top;spacingLeft=4;spacingRight=4;overflow=hidden;rotatable=0;points=[[0,0.5],[1,0.5]];portConstraint=eastwest;whiteSpace=wrap;html=1;" parent="ep3cFhaID-RFhSAYfXqb-47" vertex="1">
          <mxGeometry y="120" width="270" height="24" as="geometry" />
        </mxCell>
        <mxCell id="ep3cFhaID-RFhSAYfXqb-60" value="+&lt;span style=&quot;white-space: pre;&quot;&gt;&#x9;utilisateurConnexion&lt;/span&gt;() : bool" style="text;strokeColor=#6c8ebf;fillColor=#dae8fc;align=left;verticalAlign=top;spacingLeft=4;spacingRight=4;overflow=hidden;rotatable=0;points=[[0,0.5],[1,0.5]];portConstraint=eastwest;whiteSpace=wrap;html=1;" parent="ep3cFhaID-RFhSAYfXqb-47" vertex="1">
          <mxGeometry y="144" width="270" height="24" as="geometry" />
        </mxCell>
        <mxCell id="ep3cFhaID-RFhSAYfXqb-54" value="+&lt;span style=&quot;white-space: pre;&quot;&gt;&#x9;&lt;/span&gt;Insert() : void" style="text;strokeColor=#d6b656;fillColor=#fff2cc;align=left;verticalAlign=top;spacingLeft=4;spacingRight=4;overflow=hidden;rotatable=0;points=[[0,0.5],[1,0.5]];portConstraint=eastwest;whiteSpace=wrap;html=1;" parent="ep3cFhaID-RFhSAYfXqb-47" vertex="1">
          <mxGeometry y="168" width="270" height="24" as="geometry" />
        </mxCell>
        <mxCell id="ep3cFhaID-RFhSAYfXqb-55" value="+&lt;span style=&quot;white-space: pre;&quot;&gt;&#x9;&lt;/span&gt;Update() : void" style="text;strokeColor=#d6b656;fillColor=#fff2cc;align=left;verticalAlign=top;spacingLeft=4;spacingRight=4;overflow=hidden;rotatable=0;points=[[0,0.5],[1,0.5]];portConstraint=eastwest;whiteSpace=wrap;html=1;" parent="ep3cFhaID-RFhSAYfXqb-47" vertex="1">
          <mxGeometry y="192" width="270" height="24" as="geometry" />
        </mxCell>
        <mxCell id="ep3cFhaID-RFhSAYfXqb-56" value="+&lt;span style=&quot;white-space: pre;&quot;&gt;&#x9;&lt;/span&gt;Delete() : void" style="text;strokeColor=#d6b656;fillColor=#fff2cc;align=left;verticalAlign=top;spacingLeft=4;spacingRight=4;overflow=hidden;rotatable=0;points=[[0,0.5],[1,0.5]];portConstraint=eastwest;whiteSpace=wrap;html=1;" parent="ep3cFhaID-RFhSAYfXqb-47" vertex="1">
          <mxGeometry y="216" width="270" height="24" as="geometry" />
        </mxCell>
        <mxCell id="ep3cFhaID-RFhSAYfXqb-57" value="+ &lt;span style=&quot;white-space: pre;&quot;&gt;&#x9;&lt;/span&gt;ToString() : string" style="text;strokeColor=#d6b656;fillColor=#fff2cc;align=left;verticalAlign=top;spacingLeft=4;spacingRight=4;overflow=hidden;rotatable=0;points=[[0,0.5],[1,0.5]];portConstraint=eastwest;whiteSpace=wrap;html=1;" parent="ep3cFhaID-RFhSAYfXqb-47" vertex="1">
          <mxGeometry y="240" width="270" height="24" as="geometry" />
        </mxCell>
        <mxCell id="ep3cFhaID-RFhSAYfXqb-58" value="&lt;div&gt;+&lt;span style=&quot;white-space: pre;&quot;&gt;&#x9;&lt;/span&gt;ValeurCorrecte(): bool&lt;br&gt;&lt;/div&gt;" style="text;strokeColor=#d6b656;fillColor=#fff2cc;align=left;verticalAlign=top;spacingLeft=4;spacingRight=4;overflow=hidden;rotatable=0;points=[[0,0.5],[1,0.5]];portConstraint=eastwest;whiteSpace=wrap;html=1;" parent="ep3cFhaID-RFhSAYfXqb-47" vertex="1">
          <mxGeometry y="264" width="270" height="24" as="geometry" />
        </mxCell>
        <mxCell id="ep3cFhaID-RFhSAYfXqb-61" value="" style="endArrow=none;html=1;edgeStyle=orthogonalEdgeStyle;rounded=0;entryX=-0.018;entryY=0.036;entryDx=0;entryDy=0;exitX=1.019;exitY=0.062;exitDx=0;exitDy=0;entryPerimeter=0;exitPerimeter=0;" parent="1" source="HMEKJtXv6nUC9A5PgHyP-1" target="ep3cFhaID-RFhSAYfXqb-47" edge="1">
          <mxGeometry relative="1" as="geometry">
            <mxPoint x="243" y="375" as="sourcePoint" />
            <mxPoint x="370" y="585" as="targetPoint" />
            <Array as="points">
              <mxPoint x="290" y="177" />
              <mxPoint x="455" y="177" />
            </Array>
          </mxGeometry>
        </mxCell>
        <mxCell id="ep3cFhaID-RFhSAYfXqb-62" value="parent" style="edgeLabel;resizable=0;html=1;align=left;verticalAlign=bottom;" parent="ep3cFhaID-RFhSAYfXqb-61" connectable="0" vertex="1">
          <mxGeometry x="-1" relative="1" as="geometry">
            <mxPoint x="5" y="20" as="offset" />
          </mxGeometry>
        </mxCell>
        <mxCell id="ep3cFhaID-RFhSAYfXqb-63" value="child" style="edgeLabel;resizable=0;html=1;align=right;verticalAlign=bottom;" parent="ep3cFhaID-RFhSAYfXqb-61" connectable="0" vertex="1">
          <mxGeometry x="1" relative="1" as="geometry">
            <mxPoint x="-5" as="offset" />
          </mxGeometry>
        </mxCell>
        <mxCell id="ep3cFhaID-RFhSAYfXqb-95" value="Cl_AfficheMessageBox" style="swimlane;fontStyle=1;align=center;verticalAlign=top;childLayout=stackLayout;horizontal=1;startSize=26;horizontalStack=0;resizeParent=1;resizeParentMax=0;resizeLast=0;collapsible=1;marginBottom=0;whiteSpace=wrap;html=1;fillColor=#d5e8d4;strokeColor=#82b366;" parent="1" vertex="1">
          <mxGeometry x="70" y="475" width="280" height="106" as="geometry" />
        </mxCell>
        <mxCell id="ep3cFhaID-RFhSAYfXqb-96" value="" style="line;strokeWidth=1;fillColor=none;align=left;verticalAlign=middle;spacingTop=-1;spacingLeft=3;spacingRight=3;rotatable=0;labelPosition=right;points=[];portConstraint=eastwest;strokeColor=inherit;" parent="ep3cFhaID-RFhSAYfXqb-95" vertex="1">
          <mxGeometry y="26" width="280" height="8" as="geometry" />
        </mxCell>
        <mxCell id="ep3cFhaID-RFhSAYfXqb-102" value="&lt;div&gt;+&lt;span style=&quot;white-space: pre;&quot;&gt;&#x9;MessageErreur(string Message)&lt;/span&gt;: void&lt;br&gt;&lt;/div&gt;" style="text;strokeColor=#6c8ebf;fillColor=#dae8fc;align=left;verticalAlign=top;spacingLeft=4;spacingRight=4;overflow=hidden;rotatable=0;points=[[0,0.5],[1,0.5]];portConstraint=eastwest;whiteSpace=wrap;html=1;" parent="ep3cFhaID-RFhSAYfXqb-95" vertex="1">
          <mxGeometry y="34" width="280" height="24" as="geometry" />
        </mxCell>
        <mxCell id="ep3cFhaID-RFhSAYfXqb-109" value="&lt;div&gt;+&lt;span style=&quot;white-space: pre;&quot;&gt;&#x9;MessageAlerte(string Message)&lt;/span&gt;: void&lt;br&gt;&lt;/div&gt;" style="text;strokeColor=#6c8ebf;fillColor=#dae8fc;align=left;verticalAlign=top;spacingLeft=4;spacingRight=4;overflow=hidden;rotatable=0;points=[[0,0.5],[1,0.5]];portConstraint=eastwest;whiteSpace=wrap;html=1;" parent="ep3cFhaID-RFhSAYfXqb-95" vertex="1">
          <mxGeometry y="58" width="280" height="24" as="geometry" />
        </mxCell>
        <mxCell id="ep3cFhaID-RFhSAYfXqb-110" value="&lt;div&gt;+&lt;span style=&quot;white-space: pre;&quot;&gt;&#x9;MessageInformation(string Message)&lt;/span&gt;: void&lt;br&gt;&lt;/div&gt;" style="text;strokeColor=#6c8ebf;fillColor=#dae8fc;align=left;verticalAlign=top;spacingLeft=4;spacingRight=4;overflow=hidden;rotatable=0;points=[[0,0.5],[1,0.5]];portConstraint=eastwest;whiteSpace=wrap;html=1;" parent="ep3cFhaID-RFhSAYfXqb-95" vertex="1">
          <mxGeometry y="82" width="280" height="24" as="geometry" />
        </mxCell>
        <mxCell id="dKgr_apgYP0OS5WR8Tli-1" value="" style="rounded=1;whiteSpace=wrap;html=1;fillColor=#d5e8d4;strokeColor=#82b366;" parent="1" vertex="1">
          <mxGeometry x="490" y="475" width="60" height="20" as="geometry" />
        </mxCell>
        <mxCell id="dKgr_apgYP0OS5WR8Tli-2" value="" style="rounded=1;whiteSpace=wrap;html=1;" parent="1" vertex="1">
          <mxGeometry x="490" y="505" width="60" height="20" as="geometry" />
        </mxCell>
        <mxCell id="dKgr_apgYP0OS5WR8Tli-3" value="" style="rounded=1;whiteSpace=wrap;html=1;fillColor=#ffe6cc;strokeColor=#d79b00;" parent="1" vertex="1">
          <mxGeometry x="490" y="535" width="60" height="20" as="geometry" />
        </mxCell>
        <mxCell id="dKgr_apgYP0OS5WR8Tli-4" value="" style="rounded=1;whiteSpace=wrap;html=1;fillColor=#fff2cc;strokeColor=#d6b656;" parent="1" vertex="1">
          <mxGeometry x="490" y="565" width="60" height="20" as="geometry" />
        </mxCell>
        <mxCell id="dKgr_apgYP0OS5WR8Tli-7" value="Classe" style="text;html=1;align=center;verticalAlign=middle;whiteSpace=wrap;rounded=0;" parent="1" vertex="1">
          <mxGeometry x="560" y="477.5" width="60" height="15" as="geometry" />
        </mxCell>
        <mxCell id="dKgr_apgYP0OS5WR8Tli-8" value="Variables" style="text;html=1;align=center;verticalAlign=middle;whiteSpace=wrap;rounded=0;" parent="1" vertex="1">
          <mxGeometry x="560" y="507.5" width="60" height="15" as="geometry" />
        </mxCell>
        <mxCell id="dKgr_apgYP0OS5WR8Tli-9" value="Méthode override" style="text;html=1;align=center;verticalAlign=middle;whiteSpace=wrap;rounded=0;" parent="1" vertex="1">
          <mxGeometry x="560" y="567.5" width="110" height="15" as="geometry" />
        </mxCell>
        <mxCell id="dKgr_apgYP0OS5WR8Tli-10" value="Méthode abstraite" style="text;html=1;align=center;verticalAlign=middle;whiteSpace=wrap;rounded=0;" parent="1" vertex="1">
          <mxGeometry x="560" y="537.5" width="110" height="15" as="geometry" />
        </mxCell>
      </root>
    </mxGraphModel>
  </diagram>
</mxfile>
